<svg width="37" height="37" viewBox="0 0 37 37" fill="none" xmlns="http://www.w3.org/2000/svg">
<g clip-path="url(#clip0_59_38)">
<path d="M36.4245 8.49967C36.4235 8.84532 36.3856 9.18987 36.3115 9.52745C34.9819 15.9545 31.8647 21.8756 27.3184 26.6091C22.7621 31.2417 16.9611 34.4546 10.617 35.8591C9.82635 36.0247 9.00637 35.9841 8.23597 35.7411C7.46557 35.4981 6.77066 35.0609 6.21812 34.4716L2.26117 30.3605C2.06259 30.1505 1.91052 29.901 1.81489 29.6283C1.71926 29.3556 1.68221 29.0657 1.70617 28.7777C1.73733 28.4791 1.83353 28.1909 1.98801 27.9334C2.14249 27.676 2.3515 27.4555 2.60034 27.2875L10.1956 22.1486C10.4903 21.9559 10.8391 21.8628 11.1906 21.8832C11.5422 21.9035 11.8779 22.0362 12.1484 22.2616L15.2317 24.8413C17.5056 23.8139 19.5608 22.3589 21.2853 20.5555C23.0724 18.7638 24.4994 16.646 25.4889 14.3169L22.9503 11.1205C22.7382 10.852 22.6127 10.5254 22.5907 10.1839C22.5687 9.84243 22.6511 9.50234 22.827 9.20884L27.8426 1.44912C28.0016 1.18283 28.2187 0.955971 28.4779 0.785538C28.737 0.615105 29.0313 0.505512 29.3388 0.464977C29.6463 0.424442 29.9589 0.45401 30.2534 0.551468C30.5478 0.648926 30.8164 0.811745 31.0389 1.02773L35.0062 5.03606C35.4593 5.49138 35.8178 6.0318 36.0612 6.62622C36.3046 7.22065 36.4281 7.85735 36.4245 8.49967ZM3.74117 28.9422L7.69812 33.0533C8.00701 33.3848 8.39688 33.6302 8.82937 33.7653C9.26187 33.9005 9.72209 33.9208 10.1648 33.8241C16.1178 32.5181 21.5652 29.516 25.8487 25.1805C30.1258 20.7259 33.0579 15.1539 34.3073 9.10606C34.403 8.64829 34.3836 8.17392 34.2509 7.72548C34.1181 7.27704 33.8762 6.86855 33.5467 6.53662L29.5795 2.52828L24.7387 10.0208L27.4726 13.4536C27.5766 13.585 27.6469 13.7398 27.6773 13.9046C27.7078 14.0695 27.6975 14.2392 27.6473 14.3991C26.5971 17.2495 24.93 19.8325 22.7653 21.9636C20.7069 24.1678 18.1773 25.8788 15.3653 26.9688C15.1951 27.015 15.0159 27.0165 14.8449 26.9733C14.6739 26.9301 14.5169 26.8436 14.3889 26.7222L11.0692 23.9472L3.74117 28.9422Z" fill="white"/>
</g>
<defs>
<clipPath id="clip0_59_38">
<rect width="37" height="37" fill="white" transform="translate(0 37) rotate(-90)"/>
</clipPath>
</defs>
</svg>
