<svg width="36" height="36" viewBox="0 0 36 36" fill="none" xmlns="http://www.w3.org/2000/svg">
<path d="M18 35.5C14.5388 35.5 11.1554 34.4736 8.27753 32.5507C5.39967 30.6278 3.15665 27.8947 1.83212 24.697C0.507582 21.4993 0.161024 17.9806 0.836265 14.5859C1.51151 11.1913 3.17822 8.07306 5.62564 5.62564C8.07306 3.17822 11.1913 1.51151 14.5859 0.836265C17.9806 0.161024 21.4993 0.507582 24.697 1.83212C27.8947 3.15665 30.6278 5.39967 32.5507 8.27753C34.4736 11.1554 35.5 14.5388 35.5 18C35.5 22.6413 33.6563 27.0925 30.3744 30.3744C27.0925 33.6563 22.6413 35.5 18 35.5ZM18 3.00001C15.0333 3.00001 12.1332 3.87974 9.66645 5.52796C7.19972 7.17618 5.27713 9.51886 4.14181 12.2598C3.0065 15.0006 2.70945 18.0166 3.28823 20.9264C3.86701 23.8361 5.29562 26.5088 7.39341 28.6066C9.49119 30.7044 12.1639 32.133 15.0737 32.7118C17.9834 33.2906 20.9994 32.9935 23.7403 31.8582C26.4811 30.7229 28.8238 28.8003 30.472 26.3336C32.1203 23.8668 33 20.9667 33 18C33 14.0218 31.4197 10.2065 28.6066 7.39341C25.7936 4.58036 21.9783 3.00001 18 3.00001Z" fill="white"/>
<path d="M23.7375 25.5L16.75 18.5125V6.75H19.25V17.475L25.5 23.7375L23.7375 25.5Z" fill="white"/>
</svg>
