<svg width="158" height="128" viewBox="0 0 158 128" fill="none" xmlns="http://www.w3.org/2000/svg">
<g filter="url(#filter0_d_67_165)">
<path d="M23.05 37.65L79 60L154 30L79 0L4 30L15.1 34.425L11.5 120H26.5L23.05 37.65Z" fill="#118AB2"/>
<path d="M79.0004 67.5L120.775 50.775C126.1 57.825 129.775 66.3 130.975 75.525C128.725 75.225 126.4 75 124 75C104.875 75 88.1504 85.275 79.0004 100.575C74.356 92.7807 67.7672 86.3259 59.879 81.8428C51.9908 77.3597 43.0736 75.0018 34.0004 75C31.6004 75 29.2754 75.225 27.0254 75.525C28.2254 66.3 31.9004 57.825 37.2254 50.775L79.0004 67.5Z" fill="#EF476F"/>
</g>
<defs>
<filter id="filter0_d_67_165" x="0" y="0" width="158" height="128" filterUnits="userSpaceOnUse" color-interpolation-filters="sRGB">
<feFlood flood-opacity="0" result="BackgroundImageFix"/>
<feColorMatrix in="SourceAlpha" type="matrix" values="0 0 0 0 0 0 0 0 0 0 0 0 0 0 0 0 0 0 127 0" result="hardAlpha"/>
<feOffset dy="4"/>
<feGaussianBlur stdDeviation="2"/>
<feComposite in2="hardAlpha" operator="out"/>
<feColorMatrix type="matrix" values="0 0 0 0 0 0 0 0 0 0 0 0 0 0 0 0 0 0 0.25 0"/>
<feBlend mode="normal" in2="BackgroundImageFix" result="effect1_dropShadow_67_165"/>
<feBlend mode="normal" in="SourceGraphic" in2="effect1_dropShadow_67_165" result="shape"/>
</filter>
</defs>
</svg>
