<svg width="36" height="49" viewBox="0 0 36 49" fill="none" xmlns="http://www.w3.org/2000/svg">
<path d="M17.7892 11.9586C16.5036 11.9586 15.2469 12.3398 14.178 13.0541C13.1091 13.7683 12.2759 14.7835 11.784 15.9712C11.292 17.1589 11.1633 18.4658 11.4141 19.7267C11.6649 20.9876 12.284 22.1458 13.193 23.0548C14.102 23.9639 15.2602 24.5829 16.5211 24.8337C17.782 25.0845 19.0889 24.9558 20.2766 24.4638C21.4643 23.9719 22.4795 23.1387 23.1937 22.0698C23.908 21.0009 24.2892 19.7442 24.2892 18.4586C24.2872 16.7353 23.6018 15.0832 22.3832 13.8646C21.1647 12.646 19.5125 11.9606 17.7892 11.9586ZM17.7892 21.7086C17.1464 21.7086 16.518 21.518 15.9836 21.1609C15.4491 20.8038 15.0326 20.2962 14.7866 19.7023C14.5406 19.1085 14.4762 18.455 14.6016 17.8246C14.727 17.1941 15.0366 16.615 15.4911 16.1605C15.9456 15.706 16.5247 15.3965 17.1551 15.2711C17.7856 15.1457 18.439 15.21 19.0329 15.456C19.6268 15.702 20.1343 16.1186 20.4915 16.653C20.8486 17.1875 21.0392 17.8158 21.0392 18.4586C21.0382 19.3203 20.6955 20.1463 20.0862 20.7556C19.4769 21.3649 18.6508 21.7076 17.7892 21.7086Z" fill="white"/>
<path d="M30.2795 5.95858C27.1913 2.87113 23.0689 1.03705 18.7079 0.810337C14.3469 0.583623 10.0565 1.98034 6.66477 4.73092C3.27303 7.4815 1.02038 11.391 0.341584 15.7048C-0.337209 20.0186 0.605973 24.4309 2.9891 28.0902L15.2687 46.9415C15.542 47.361 15.9156 47.7056 16.3558 47.9442C16.7959 48.1827 17.2886 48.3077 17.7892 48.3077C18.2899 48.3077 18.7826 48.1827 19.2227 47.9442C19.6629 47.7056 20.0365 47.361 20.3098 46.9415L32.5898 28.0902C34.8011 24.6957 35.7783 20.6442 35.3577 16.6149C34.9371 12.5855 33.1442 8.82324 30.2795 5.95858ZM29.8667 26.3162L17.7893 44.8564L5.71178 26.3162C2.01491 20.641 2.80781 13.0461 7.59709 8.25664C8.93553 6.91815 10.5245 5.85641 12.2733 5.13203C14.0221 4.40764 15.8964 4.03481 17.7893 4.03481C19.6822 4.03481 21.5565 4.40764 23.3053 5.13203C25.0541 5.85641 26.643 6.91815 27.9815 8.25664C32.7708 13.0461 33.5636 20.641 29.8667 26.3162Z" fill="white"/>
</svg>
