<svg width="35" height="35" viewBox="0 0 35 35" fill="none" xmlns="http://www.w3.org/2000/svg">
<path d="M17.7461 22.4346H16.8242V24.4474H17.7461V22.4346Z" fill="white"/>
<path d="M17.7461 10.3578H16.8242V12.3706H17.7461V10.3578Z" fill="white"/>
<path d="M12.6758 16.8994H10.832V17.9058H12.6758V16.8994Z" fill="white"/>
<path d="M23.7383 16.8994H21.8945V17.9058H23.7383V16.8994Z" fill="white"/>
<path d="M22.1723 22.0285L20.868 20.6045L20.2161 21.3161L21.5205 22.7401L22.1723 22.0285Z" fill="white"/>
<path d="M14.3503 13.4891L13.0459 12.0651L12.394 12.7768L13.6984 14.2007L14.3503 13.4891Z" fill="white"/>
<path d="M14.3521 21.3158L13.7003 20.6042L12.3959 22.0282L13.0477 22.7398L14.3521 21.3158Z" fill="white"/>
<path d="M22.1738 12.7768L21.5219 12.0651L20.2175 13.4891L20.8694 14.2007L22.1738 12.7768Z" fill="white"/>
<path d="M23.1552 34.5215C21.4866 34.5215 19.6004 33.8246 17.6276 32.4511C14.5465 30.3062 11.5921 26.7471 9.30886 22.4296C7.02561 18.1121 5.67944 13.5398 5.51835 9.55414C5.35264 5.45103 6.46188 2.43484 8.64189 1.06059C10.8219 -0.313653 13.7696 0.146022 16.9415 2.35407C20.0227 4.49897 22.977 8.05812 25.2603 12.3756C27.5436 16.6931 28.8897 21.2654 29.0508 25.251C29.2165 29.3541 28.107 32.3703 25.927 33.7443C25.1031 34.2639 24.169 34.5215 23.1552 34.5215ZM11.4193 1.29005C10.564 1.29005 9.78432 1.50266 9.10283 1.93214C7.23511 3.10913 6.28926 5.80025 6.43907 9.50961C6.59371 13.3365 7.89632 17.7463 10.1072 21.9264C12.3179 26.1065 15.1644 29.5426 18.1229 31.6025C20.9906 33.5989 23.5982 34.0498 25.4659 32.873C27.3336 31.6961 28.2794 29.0049 28.1296 25.2956C27.975 21.4687 26.6724 17.0589 24.4615 12.8788C22.2508 8.6987 19.4043 5.26258 16.4458 3.20272C14.6244 1.93465 12.9079 1.29005 11.4193 1.29005Z" fill="white"/>
<path d="M11.4151 34.5215C10.401 34.5215 9.46739 34.2641 8.64324 33.7446C6.46323 32.3706 5.35399 29.3542 5.51946 25.2513C5.68056 21.2657 7.02673 16.6931 9.30998 12.3759C11.5932 8.05863 14.5476 4.49948 17.6288 2.35433C20.8005 0.146531 23.7484 -0.313648 25.9284 1.06085C28.1084 2.43484 29.2176 5.45129 29.0522 9.55415C28.8911 13.5398 27.5449 18.1124 25.2617 22.4296C22.9784 26.7468 20.024 30.306 16.9429 32.4511C14.9701 33.8243 13.0839 34.5215 11.4151 34.5215ZM23.151 1.29006C21.6624 1.29006 19.9461 1.93466 18.1243 3.20273C15.1657 5.26259 12.3192 8.6987 10.1086 12.8788C7.89767 17.0589 6.59506 21.4685 6.44042 25.2956C6.29061 29.0049 7.23646 31.6961 9.10417 32.873C10.9714 34.0498 13.5792 33.5989 16.4471 31.6025C19.4057 29.5426 22.2522 26.1065 24.4628 21.9264C26.6737 17.7463 27.9763 13.3367 28.131 9.50961C28.2808 5.80026 27.3349 3.10913 25.4672 1.93214C24.7862 1.50291 24.0061 1.29006 23.151 1.29006Z" fill="white"/>
<path d="M17.2852 27.4566C12.7186 27.4566 8.4181 26.4429 5.1761 24.6024C1.83822 22.7076 0 20.1506 0 17.4026C0 14.6546 1.83822 12.0976 5.1761 10.2028C8.4181 8.3623 12.7186 7.3486 17.2852 7.3486C21.8517 7.3486 26.1522 8.3623 29.3942 10.2028C32.7321 12.0976 34.5703 14.6546 34.5703 17.4026C34.5703 20.1506 32.7321 22.7076 29.3942 24.6024C26.1522 26.4429 21.8517 27.4566 17.2852 27.4566ZM17.2852 8.35501C8.26254 8.35501 0.921875 12.4136 0.921875 17.4026C0.921875 22.3916 8.26254 26.4502 17.2852 26.4502C26.3078 26.4502 33.6484 22.3916 33.6484 17.4026C33.6484 12.4136 26.3078 8.35501 17.2852 8.35501Z" fill="white"/>
<path d="M17.2852 21.1766C19.1944 21.1766 20.7422 19.4869 20.7422 17.4026C20.7422 15.3183 19.1944 13.6286 17.2852 13.6286C15.3759 13.6286 13.8281 15.3183 13.8281 17.4026C13.8281 19.4869 15.3759 21.1766 17.2852 21.1766Z" fill="#EF476F"/>
<path d="M17.2852 21.6798C15.1247 21.6798 13.3672 19.7611 13.3672 17.4026C13.3672 15.0441 15.1247 13.1254 17.2852 13.1254C19.4456 13.1254 21.2031 15.0441 21.2031 17.4026C21.2031 19.7611 19.4456 21.6798 17.2852 21.6798ZM17.2852 14.1318C15.6332 14.1318 14.2891 15.5991 14.2891 17.4026C14.2891 19.2061 15.6332 20.6734 17.2852 20.6734C18.9372 20.6734 20.2812 19.2061 20.2812 17.4026C20.2812 15.5991 18.9372 14.1318 17.2852 14.1318Z" fill="white"/>
</svg>
