<svg width="134" height="127" viewBox="0 0 134 127" fill="none" xmlns="http://www.w3.org/2000/svg">
<g filter="url(#filter0_d_67_237)">
<path fill-rule="evenodd" clip-rule="evenodd" d="M76.625 118.75H16.5C9.60625 118.75 4 113.144 4 106.25V68.7501C4 61.8563 9.60625 56.2501 16.5 56.2501H48.6625C53.3079 56.2346 57.8648 57.5203 61.8171 59.9615C65.7694 62.4027 68.9591 65.9018 71.025 70.0626L74.8812 77.7813L94.7875 61.8626C97.2436 59.9289 100.138 58.6305 103.216 58.0822C106.293 57.5339 109.458 57.7525 112.431 58.7188L124.731 62.8188C125.703 63.1434 126.581 63.7021 127.286 64.4457C127.992 65.1893 128.503 66.095 128.776 67.0829C129.049 68.0709 129.075 69.1108 128.851 70.111C128.628 71.1113 128.161 72.0412 127.494 72.8188L95.6062 110.019C93.2607 112.759 90.3495 114.958 87.0728 116.465C83.7961 117.973 80.2317 118.752 76.625 118.75ZM48.6625 68.7501H16.5V106.25H76.625C78.4228 106.248 80.1996 105.863 81.8374 105.122C83.4753 104.38 84.9368 103.299 86.125 101.95L111.956 71.8063L108.475 70.6438C106.494 69.9813 104.237 70.3876 102.6 71.6876L76.6875 92.4188C76.4706 92.598 76.2408 92.7609 76 92.9063L75.9875 92.9126C75.9875 92.9126 76.025 92.9126 75.9688 92.9188L75.9562 92.9251L75.9437 92.9313H75.9375L75.925 92.9376H75.9187L75.9062 92.9438L75.8875 92.9501L75.875 92.9563L75.8625 92.9626L75.8438 92.9751C75.8415 92.9751 75.842 92.977 75.842 92.977C75.842 92.977 75.8431 92.9813 75.8313 92.9813L75.8187 92.9876L75.8 92.9938L75.7875 93.0001L75.775 93.0063L75.7562 93.0126L75.7438 93.0188H75.7375C75.7375 93.0188 75.7875 93.0251 75.725 93.0251C75.725 93.0251 75.7625 93.0501 75.7062 93.0313L75.7 93.0376H75.675L75.6625 93.0438H75.6438L75.6187 93.0563L75.6 93.0626C74.7446 93.502 73.7991 93.7374 72.8375 93.7501H35.25V81.2501H62.6375L59.8438 75.6563C57.7125 71.3938 53.4312 68.7501 48.6625 68.7501Z" fill="#1B7FA0"/>
</g>
<g filter="url(#filter1_d_67_237)">
<path fill-rule="evenodd" clip-rule="evenodd" d="M91.5 5.87856e-05H91.3937C90.375 0.0125588 85.1062 0.243808 79 4.40631C73.0563 0.356308 67.9125 0.0313083 66.7 0.00630833L66.5125 5.87856e-05H66.4875C61.4812 5.87856e-05 56.7687 1.95631 53.2437 5.48756C49.7062 9.03131 47.75 13.7376 47.75 18.7501C47.75 23.7626 49.7062 28.4688 53.1312 31.9001L74.4688 54.3126C75.0558 54.922 75.7599 55.4066 76.5387 55.7375C77.3175 56.0683 78.1551 56.2386 79.0013 56.238C79.8475 56.2374 80.6849 56.066 81.4633 55.7341C82.2417 55.4022 82.945 54.9165 83.5312 54.3063L104.756 32.0063C108.3 28.4688 110.25 23.7626 110.25 18.7501C110.25 13.7376 108.294 9.03131 104.762 5.49381C103.027 3.74722 100.962 2.3623 98.688 1.41928C96.4136 0.476258 93.9747 -0.00612913 91.5125 5.87856e-05H91.5ZM95.8062 23.2813C97.1 21.9876 97.75 20.4188 97.75 18.7501C97.75 17.0813 97.1 15.5126 95.9188 14.3313C95.3451 13.7529 94.6626 13.2938 93.9107 12.9806C93.1587 12.6674 92.3521 12.5062 91.5375 12.5063C91.0625 12.5438 88.2688 12.8751 84.9625 15.5313C84.4563 15.9376 83.9437 16.4001 83.4187 16.9188L79 21.3376L74.5813 16.9188C74.0563 16.4001 73.5437 15.9376 73.0375 15.5313C69.5062 12.7001 66.525 12.5063 66.3688 12.5001C64.7567 12.5194 63.2177 13.1754 62.0875 14.3251C60.9 15.5126 60.25 17.0813 60.25 18.7501C60.25 20.4188 60.9 21.9876 62.0813 23.1688L79 40.9376L95.8062 23.2813Z" fill="#EC0038"/>
</g>
<defs>
<filter id="filter0_d_67_237" x="0" y="56.2499" width="133.002" height="70.5002" filterUnits="userSpaceOnUse" color-interpolation-filters="sRGB">
<feFlood flood-opacity="0" result="BackgroundImageFix"/>
<feColorMatrix in="SourceAlpha" type="matrix" values="0 0 0 0 0 0 0 0 0 0 0 0 0 0 0 0 0 0 127 0" result="hardAlpha"/>
<feOffset dy="4"/>
<feGaussianBlur stdDeviation="2"/>
<feComposite in2="hardAlpha" operator="out"/>
<feColorMatrix type="matrix" values="0 0 0 0 0 0 0 0 0 0 0 0 0 0 0 0 0 0 0.25 0"/>
<feBlend mode="normal" in2="BackgroundImageFix" result="effect1_dropShadow_67_237"/>
<feBlend mode="normal" in="SourceGraphic" in2="effect1_dropShadow_67_237" result="shape"/>
</filter>
<filter id="filter1_d_67_237" x="43.75" y="0" width="70.5" height="64.238" filterUnits="userSpaceOnUse" color-interpolation-filters="sRGB">
<feFlood flood-opacity="0" result="BackgroundImageFix"/>
<feColorMatrix in="SourceAlpha" type="matrix" values="0 0 0 0 0 0 0 0 0 0 0 0 0 0 0 0 0 0 127 0" result="hardAlpha"/>
<feOffset dy="4"/>
<feGaussianBlur stdDeviation="2"/>
<feComposite in2="hardAlpha" operator="out"/>
<feColorMatrix type="matrix" values="0 0 0 0 0 0 0 0 0 0 0 0 0 0 0 0 0 0 0.25 0"/>
<feBlend mode="normal" in2="BackgroundImageFix" result="effect1_dropShadow_67_237"/>
<feBlend mode="normal" in="SourceGraphic" in2="effect1_dropShadow_67_237" result="shape"/>
</filter>
</defs>
</svg>
